<?xml version="1.0" encoding="UTF-8" standalone="no"?> <svg width="64" height="64" viewBox="0 0 64 64" fill="none" xmlns="http://www.w3.org/2000/svg">
<path d="M38 57H34.414L30.707 53.293C30.5184 53.1108 30.2658 53.01 30.0036 53.0123C29.7414 53.0146 29.4906 53.1198 29.3052 53.3052C29.1198 53.4906 29.0146 53.7414 29.0124 54.0036C29.0101 54.2658 29.1109 54.5184 29.293 54.707L33.293 58.707C33.4805 58.8945 33.7348 58.9999 34 59H37V60C37 60.2652 37.1054 60.5196 37.2929 60.7071C37.4805 60.8946 37.7348 61 38 61C38.2653 61 38.5196 60.8946 38.7071 60.7071C38.8947 60.5196 39 60.2652 39 60V58C39 57.7348 38.8947 57.4804 38.7071 57.2929C38.5196 57.1053 38.2653 57 38 57Z" fill="#4891D3"/>
<path d="M28 57H24.781L23.97 53.757C23.9389 53.6288 23.8827 53.508 23.8047 53.4016C23.7266 53.2953 23.6283 53.2054 23.5154 53.1371C23.4025 53.0689 23.2772 53.0237 23.1468 53.0041C23.0163 52.9845 22.8833 52.991 22.7553 53.023C22.6273 53.0551 22.507 53.1121 22.4011 53.1909C22.2953 53.2697 22.2061 53.3686 22.1387 53.482C22.0713 53.5954 22.027 53.721 22.0083 53.8516C21.9897 53.9822 21.9971 54.1152 22.03 54.243L23.03 58.243C23.0842 58.4592 23.2091 58.6512 23.3848 58.7883C23.5606 58.9255 23.7771 59 24 59H27V60C27 60.2652 27.1054 60.5195 27.2929 60.7071C27.4805 60.8946 27.7348 61 28 61C28.2652 61 28.5196 60.8946 28.7071 60.7071C28.8947 60.5195 29 60.2652 29 60V58C29 57.7348 28.8947 57.4804 28.7071 57.2929C28.5196 57.1053 28.2652 57 28 57Z" fill="#4891D3"/>
<path d="M28 55L30 45H34L32.784 51.078C32.5628 52.1839 31.9652 53.1791 31.093 53.8941C30.2208 54.6092 29.1278 54.9999 28 55V55Z" fill="#57B7EB"/>
<path d="M21 55L23 45H27L25.784 51.078C25.5628 52.1839 24.9652 53.1791 24.093 53.8941C23.2208 54.6092 22.1278 54.9999 21 55V55Z" fill="#57B7EB"/>
<path d="M29.724 52.381C29.9152 51.4401 30.3504 50.5661 30.9859 49.8465C31.6214 49.1269 32.435 48.587 33.345 48.281L34 45H30L28 55C28.4176 54.9947 28.8327 54.9352 29.235 54.823L29.724 52.381Z" fill="#4891D3"/>
<path d="M22.591 53.044C22.7826 52.1033 23.2179 51.2294 23.8534 50.5099C24.4888 49.7903 25.3022 49.2504 26.212 48.944L27 45H23L21 55C21.4176 54.9947 21.8327 54.9352 22.235 54.823L22.591 53.044Z" fill="#4891D3"/>
<path d="M40.482 46.351L12 49L49.854 10.265C50.2707 9.83836 50.8052 9.54564 51.3891 9.42419C51.973 9.30274 52.5798 9.35808 53.1321 9.58314C53.6844 9.8082 54.1571 10.1928 54.4898 10.6877C54.8225 11.1827 55.0001 11.7656 55 12.362V30.419C55.0002 34.406 53.5118 38.2495 50.8263 41.1965C48.1409 44.1435 44.4519 45.9817 40.482 46.351Z" fill="#AAE1F9"/>
<path d="M37.02 23.4L12 49L40.482 46.351C42.9186 46.1249 45.2707 45.3424 47.3571 44.0637C49.4435 42.7851 51.2085 41.0445 52.516 38.976C48.4312 38.8535 44.5487 37.1707 41.6665 34.2736C38.7842 31.3766 37.1215 27.4854 37.02 23.4Z" fill="#57B7EB"/>
<path d="M17.729 48.467C19.0423 47.3375 20.6899 46.67 22.419 46.567C24.3551 46.4533 26.182 45.6327 27.553 44.261L34.617 37.2C35.3603 36.4562 35.9495 35.573 36.3509 34.6011C36.7523 33.6292 36.9581 32.5876 36.9563 31.5361C36.9545 30.4845 36.7453 29.4436 36.3406 28.4731C35.936 27.5025 35.3438 26.6213 34.598 25.88L12 49L17.729 48.467Z" fill="#4891D3"/>
<path d="M46 21C50.9706 21 55 16.9706 55 12C55 7.02944 50.9706 3 46 3C41.0294 3 37 7.02944 37 12C37 16.9706 41.0294 21 46 21Z" fill="#AAE1F9"/>
<path d="M46 11C47.1046 11 48 10.1046 48 9C48 7.89543 47.1046 7 46 7C44.8954 7 44 7.89543 44 9C44 10.1046 44.8954 11 46 11Z" fill="#57B7EB"/>
<path d="M32 8H38C38.5304 8 39.0391 8.21071 39.4142 8.58579C39.7893 8.96086 40 9.46957 40 10V12H28C28 10.9391 28.4214 9.92172 29.1716 9.17157C29.9217 8.42143 30.9391 8 32 8Z" fill="#57B7EB"/>
<path d="M32 12H40V14C40 14.5304 39.7893 15.0391 39.4142 15.4142C39.0391 15.7893 38.5304 16 38 16H36C34.9391 16 33.9217 15.5786 33.1716 14.8284C32.4214 14.0783 32 13.0609 32 12Z" fill="#4891D3"/>
<path d="M31.284 38.607L7.95001 39.314L24.92 22.343C25.6629 21.6001 26.5448 21.0108 27.5154 20.6087C28.4861 20.2066 29.5264 19.9997 30.577 19.9997C31.6276 19.9997 32.6679 20.2066 33.6386 20.6087C34.6092 21.0108 35.4911 21.6001 36.234 22.343C36.9769 23.0859 37.5662 23.9678 37.9683 24.9384C38.3704 25.9091 38.5773 26.9494 38.5773 28C38.5773 29.0506 38.3704 30.0909 37.9683 31.0616C37.5662 32.0322 36.9769 32.9141 36.234 33.657L31.284 38.607Z" fill="#57B7EB"/>
<path d="M36.27 22.383C35.9695 22.8422 35.6223 23.2691 35.234 23.657C32.0543 26.8362 27.7814 28.6824 23.287 28.819L18.294 28.97L7.95001 39.314L31.284 38.607L36.234 33.657C37.727 32.1631 38.5686 30.1394 38.5754 28.0274C38.5821 25.9154 37.7534 23.8864 36.27 22.383Z" fill="#4891D3"/>
<path d="M15.021 43.556L27.042 42.849L36.234 33.657L33.406 30.828C33.0346 30.4566 32.5936 30.1619 32.1083 29.9609C31.623 29.7598 31.1028 29.6564 30.5775 29.6564C30.0522 29.6564 29.532 29.7598 29.0467 29.9609C28.5614 30.1619 28.1204 30.4566 27.749 30.828L15.021 43.556Z" fill="#AAE1F9"/>
<path d="M21.927 43.15L27.042 42.85L36.234 33.658C35.9182 33.3414 35.543 33.0902 35.13 32.9189C34.717 32.7475 34.2742 32.6593 33.827 32.6593C33.3798 32.6593 32.9371 32.7475 32.524 32.9189C32.111 33.0902 31.7358 33.3414 31.42 33.658L21.927 43.15Z" fill="#57B7EB"/>
<path d="M24.176 43.018C25.2887 41.737 25.9649 40.1351 26.1065 38.4442C26.2482 36.7533 25.8481 35.0613 24.964 33.613L15.021 43.556L24.176 43.018Z" fill="#4891D3"/>
<path d="M16.435 47.8L3.70697 49.213L22.8 30.121C23.5429 30.8638 24.1322 31.7458 24.5343 32.7164C24.9363 33.687 25.1433 34.7274 25.1433 35.778C25.1433 36.8286 24.9363 37.8689 24.5343 38.8395C24.1322 39.8102 23.5429 40.6921 22.8 41.435L16.435 47.8Z" fill="#57B7EB"/>
<path d="M10.778 53.456L3 55.577L23.506 35.071C23.8775 35.4424 24.1721 35.8834 24.3731 36.3687C24.5742 36.854 24.6776 37.3742 24.6776 37.8995C24.6776 38.4248 24.5742 38.945 24.3731 39.4303C24.1721 39.9156 23.8775 40.3565 23.506 40.728L10.778 53.456Z" fill="#AAE1F9"/>
<path d="M52.9 17.778C51.4646 19.4943 49.4407 20.6136 47.2239 20.9171C45.0071 21.2205 42.7569 20.6864 40.913 19.419L37.74 22.662C39.0481 23.3748 40.4875 23.8142 41.9706 23.9535C43.4538 24.0927 44.9498 23.929 46.3677 23.4722C47.7857 23.0154 49.0959 22.2751 50.2188 21.2962C51.3418 20.3173 52.254 19.1203 52.9 17.778Z" fill="#57B7EB"/>
<path d="M47 9.99999C46.6656 10.0014 46.3363 9.91858 46.0424 9.75923C45.7484 9.59989 45.4993 9.36912 45.318 9.0882C45.1367 8.80727 45.0291 8.48523 45.0049 8.15175C44.9808 7.81828 45.041 7.48409 45.18 7.17999C44.8834 7.31184 44.6234 7.51389 44.4223 7.76869C44.2213 8.0235 44.0853 8.3234 44.026 8.64252C43.9668 8.96163 43.9861 9.29037 44.0823 9.60035C44.1785 9.91034 44.3487 10.1922 44.5782 10.4217C44.8077 10.6513 45.0896 10.8215 45.3996 10.9177C45.7096 11.0139 46.0383 11.0332 46.3575 10.9739C46.6766 10.9147 46.9765 10.7787 47.2313 10.5777C47.4861 10.3766 47.6881 10.1166 47.82 9.81999C47.5626 9.93762 47.283 9.99899 47 9.99999Z" fill="#4891D3"/>
</svg>
